<svg xmlns="http://www.w3.org/2000/svg" xmlns:xlink="http://www.w3.org/1999/xlink" width="270" height="270" viewBox="0 0 270 270">
  <defs>
    <linearGradient id="linear-gradient" x1="0.134" y1="0.146" x2="0.841" y2="0.849" gradientUnits="objectBoundingBox">
      <stop offset="0" stop-color="#7a49e7"/>
      <stop offset="1" stop-color="#51bccf"/>
    </linearGradient>
  </defs>
  <path id="Union_2" data-name="Union 2" d="M107.793,267.258A134.278,134.278,0,0,1,59.52,246.944a135.391,135.391,0,0,1-48.911-59.4,134.321,134.321,0,0,1-7.867-25.341,136.335,136.335,0,0,1,0-54.414A134.277,134.277,0,0,1,23.056,59.52a135.391,135.391,0,0,1,59.4-48.911,134.321,134.321,0,0,1,25.341-7.867,136.335,136.335,0,0,1,54.414,0A134.277,134.277,0,0,1,210.48,23.056a135.391,135.391,0,0,1,48.911,59.4,134.323,134.323,0,0,1,7.867,25.341,136.336,136.336,0,0,1,0,54.414,134.277,134.277,0,0,1-20.314,48.273,135.392,135.392,0,0,1-59.4,48.911,134.323,134.323,0,0,1-25.341,7.867,136.336,136.336,0,0,1-54.414,0Zm6.852-231.206A100.45,100.45,0,0,0,78.53,51.25,101.293,101.293,0,0,0,41.937,95.686a100.427,100.427,0,0,0-5.885,18.958,101.986,101.986,0,0,0,0,40.711,100.45,100.45,0,0,0,15.2,36.115,101.293,101.293,0,0,0,44.437,36.592,100.427,100.427,0,0,0,18.958,5.885,101.986,101.986,0,0,0,40.711,0,100.45,100.45,0,0,0,36.115-15.2,101.293,101.293,0,0,0,36.592-44.437,100.426,100.426,0,0,0,5.885-18.958,101.986,101.986,0,0,0,0-40.711,100.45,100.45,0,0,0-15.2-36.115,101.293,101.293,0,0,0-44.437-36.592,100.427,100.427,0,0,0-18.958-5.885,101.986,101.986,0,0,0-40.711,0ZM0,17A17,17,0,1,1,17,34,17,17,0,0,1,0,17Z" fill="url(#linear-gradient)"/>
</svg>
