<svg xmlns="http://www.w3.org/2000/svg" width="270" height="270" viewBox="0 0 270 270">
  <path id="Union_1" data-name="Union 1" d="M236,253a17,17,0,1,1,17,17A17,17,0,0,1,236,253ZM107.793,267.258A134.278,134.278,0,0,1,59.52,246.944a135.391,135.391,0,0,1-48.911-59.4,134.321,134.321,0,0,1-7.867-25.341,136.335,136.335,0,0,1,0-54.414A134.277,134.277,0,0,1,23.056,59.52a135.391,135.391,0,0,1,59.4-48.911,134.321,134.321,0,0,1,25.341-7.867,136.335,136.335,0,0,1,54.414,0A134.277,134.277,0,0,1,210.48,23.056a135.391,135.391,0,0,1,48.911,59.4,134.323,134.323,0,0,1,7.867,25.341,136.336,136.336,0,0,1,0,54.414,134.277,134.277,0,0,1-20.314,48.273,135.392,135.392,0,0,1-59.4,48.911,134.323,134.323,0,0,1-25.341,7.867,136.336,136.336,0,0,1-54.414,0Zm15.186-144.279A17,17,0,1,0,135,118,16.893,16.893,0,0,0,122.979,122.979Z" fill="#050505"/>
</svg>
