<svg xmlns="http://www.w3.org/2000/svg" xmlns:xlink="http://www.w3.org/1999/xlink" width="270" height="270" viewBox="0 0 270 270">
  <defs>
    <linearGradient id="linear-gradient" x1="0.134" y1="0.146" x2="0.841" y2="0.849" gradientUnits="objectBoundingBox">
      <stop offset="0" stop-color="#7a49e7"/>
      <stop offset="1" stop-color="#51bccf"/>
    </linearGradient>
  </defs>
  <path id="Subtraction_2" data-name="Subtraction 2" d="M135,270a136,136,0,0,1-27.207-2.743A134.261,134.261,0,0,1,59.52,246.944a135.393,135.393,0,0,1-48.911-59.4,134.318,134.318,0,0,1-7.866-25.341,136.316,136.316,0,0,1,0-54.415A134.26,134.26,0,0,1,23.056,59.52a135.393,135.393,0,0,1,59.4-48.911,134.319,134.319,0,0,1,25.341-7.866,136.316,136.316,0,0,1,54.415,0A134.26,134.26,0,0,1,210.48,23.056a135.393,135.393,0,0,1,48.911,59.4,134.316,134.316,0,0,1,7.866,25.341,136.316,136.316,0,0,1,0,54.415,134.261,134.261,0,0,1-20.313,48.273,135.393,135.393,0,0,1-59.4,48.911,134.316,134.316,0,0,1-25.341,7.866A136,136,0,0,1,135,270Zm0-236a101.747,101.747,0,0,0-20.355,2.052,100.446,100.446,0,0,0-36.115,15.2A101.294,101.294,0,0,0,41.937,95.686a100.491,100.491,0,0,0-5.885,18.959,101.987,101.987,0,0,0,0,40.71,100.446,100.446,0,0,0,15.2,36.115,101.294,101.294,0,0,0,44.437,36.593,100.491,100.491,0,0,0,18.959,5.885,101.987,101.987,0,0,0,40.71,0,100.446,100.446,0,0,0,36.115-15.2,101.294,101.294,0,0,0,36.593-44.437,100.491,100.491,0,0,0,5.885-18.959,101.987,101.987,0,0,0,0-40.71,100.446,100.446,0,0,0-15.2-36.115,101.294,101.294,0,0,0-44.437-36.593,100.492,100.492,0,0,0-18.959-5.885A101.747,101.747,0,0,0,135,34Z" fill="url(#linear-gradient)"/>
</svg>
